# File created by Blade
# Date/Time:  Thu Sep 25 19:04:16 2014
# Frame Rate: 120.000 fps
#------------------------------------------------------
:FULLY-SPECIFIED
:DEGREES
1183
root -0.320971 30.712195 -3.596161 12.023583 -1.862254 -1.815826
Spine -12.312348 6.502744 0.185604
Head -10.812559 -4.103526 6.316975
LeftShoulder -16.324665 17.504424 28.751802
LeftArm 14.703065 -26.041648 -31.507487
LeftForeArm 11.194472 -0.000000 12.245993
LeftHand -31.995549 -0.000000 -4.143999
LeftHandThumb1 -26.253704 0.000000 33.147579
RightShoulder -21.023104 15.022034 -41.830451
RightArm -15.171795 15.092340 28.710221
RightForeArm -26.377222 -0.000000 15.957945
RightHand -15.358026 -0.000000 -11.772739
RightHandThumb1 -24.326973 -0.000000 -32.862282
LeftUpLeg -4.473719 19.302347 22.175881
LeftLeg -2.632160 -0.000000 0.000000
LeftFoot -4.637553 6.805621 -35.574241
LeftToeBase 10.230849 -0.000000 -0.000000
RightUpLeg -5.897436 -15.400649 -18.641072
RightLeg -1.637618 -0.000000 0.000000
RightFoot -0.500297 -2.164839 16.059160
RightToeBase 1.156483 -0.000000 -0.000000
1184
root -0.327225 30.713846 -3.611173 12.036529 -1.888029 -1.822267
Spine -12.282219 6.477398 0.299504
Head -10.861319 -3.969708 6.239941
LeftShoulder -16.271094 17.429618 28.701338
LeftArm 14.746806 -25.892304 -31.492594
LeftForeArm 11.193247 -0.000000 12.251199
LeftHand -32.055108 -0.000000 -4.020415
LeftHandThumb1 -26.253704 0.000000 33.147579
RightShoulder -20.938045 15.016783 -41.802015
RightArm -15.112838 15.066299 28.769052
RightForeArm -26.231381 -0.000000 15.999603
RightHand -15.274772 -0.000000 -11.859676
RightHandThumb1 -24.326973 -0.000000 -32.862282
LeftUpLeg -4.511352 19.278253 22.194793
LeftLeg -2.611608 -0.000000 0.000000
LeftFoot -4.599245 6.852268 -35.596987
LeftToeBase 10.223052 -0.000000 -0.000000
RightUpLeg -5.966367 -15.380483 -18.616358
RightLeg -1.607478 -0.000000 0.000000
RightFoot -0.494238 -2.181176 16.037500
RightToeBase 1.152710 -0.000000 -0.000000
1185
root -0.332668 30.715557 -3.627380 12.051558 -1.927308 -1.826518
Spine -12.243557 6.476377 0.418510
Head -10.927945 -3.881033 6.138190
LeftShoulder -16.260704 17.466463 28.631893
LeftArm 14.876901 -25.864618 -31.567128
LeftForeArm 11.169145 -0.000000 12.352204
LeftHand -32.093900 -0.000000 -3.969949
LeftHandThumb1 -26.253704 0.000000 33.147579
RightShoulder -20.875249 15.005762 -41.788532
RightArm -15.031122 15.083214 28.809591
RightForeArm -26.153170 -0.000000 16.050641
RightHand -15.193010 0.000000 -11.852199
RightHandThumb1 -24.326973 -0.000000 -32.862282
LeftUpLeg -4.549019 19.234894 22.206942
LeftLeg -2.576709 -0.000000 0.000000
LeftFoot -4.617447 6.918811 -35.685710
LeftToeBase 10.206440 -0.000000 -0.000000
RightUpLeg -6.046522 -15.292399 -18.603332
RightLeg -1.567252 -0.000000 0.000000
RightFoot -0.507431 -2.242905 16.080214
RightToeBase 1.136710 -0.000000 -0.000000
1186
root -0.339893 30.717684 -3.646329 12.064890 -1.968148 -1.852119
Spine -12.184065 6.521826 0.555484
Head -11.002429 -3.850134 6.068642
LeftShoulder -16.227784 17.487026 28.539701
LeftArm 15.020922 -25.931707 -31.632735
LeftForeArm 11.238683 -0.000000 12.443453
LeftHand -32.041345 0.000000 -4.025559
LeftHandThumb1 -26.253704 0.000000 33.147579
RightShoulder -20.835852 15.026818 -41.816169
RightArm -14.979624 15.105877 28.845654
RightForeArm -26.180436 -0.000000 16.067993
RightHand -15.151647 -0.000000 -12.087570
RightHandThumb1 -24.326973 -0.000000 -32.862282
LeftUpLeg -4.592344 19.232755 22.239997
LeftLeg -2.532664 -0.000000 0.000000
LeftFoot -4.617852 6.974202 -35.719973
LeftToeBase 10.186366 -0.000000 -0.000000
RightUpLeg -6.128323 -15.186421 -18.567648
RightLeg -1.532649 -0.000000 0.000000
RightFoot -0.521647 -2.304714 16.086527
RightToeBase 1.161411 -0.000000 -0.000000
1187
root -0.345995 30.719929 -3.666284 12.087654 -2.008729 -1.860179
Spine -12.130727 6.568535 0.689011
Head -11.068325 -3.810620 5.942046
LeftShoulder -16.192024 17.523227 28.459859
LeftArm 15.194145 -25.948215 -31.724444
LeftForeArm 11.312368 -0.000000 12.477432
LeftHand -31.969406 -0.000000 -3.999856
LeftHandThumb1 -26.253704 0.000000 33.147579
RightShoulder -20.799178 15.079214 -41.894062
RightArm -14.950127 15.143440 28.879802
RightForeArm -26.240996 -0.000000 16.106223
RightHand -15.049493 -0.000000 -12.095945
RightHandThumb1 -24.326973 -0.000000 -32.862282
LeftUpLeg -4.650738 19.248092 22.244423
LeftLeg -2.491324 -0.000000 0.000000
LeftFoot -4.608699 7.017031 -35.749099
LeftToeBase 10.224531 -0.000000 -0.000000
RightUpLeg -6.223232 -15.119861 -18.543795
RightLeg -1.494975 -0.000000 0.000000
RightFoot -0.525039 -2.344229 16.099097
RightToeBase 1.187327 -0.000000 -0.000000
1188
root -0.352698 30.722860 -3.686791 12.109483 -2.042280 -1.880110
Spine -12.069141 6.609697 0.837282
Head -11.143449 -3.754439 5.842597
LeftShoulder -16.121868 17.457572 28.417200
LeftArm 15.247117 -25.756517 -31.726300
LeftForeArm 11.223703 -0.000000 12.499016
LeftHand -31.941305 0.000000 -3.816006
LeftHandThumb1 -26.253704 0.000000 33.147579
RightShoulder -20.768699 15.052746 -41.898587
RightArm -14.810003 15.074808 28.926480
RightForeArm -26.196590 -0.000000 16.134426
RightHand -15.154704 -0.000000 -12.349193
RightHandThumb1 -24.326973 -0.000000 -32.862282
LeftUpLeg -4.717882 19.270398 22.256367
LeftLeg -2.440787 -0.000000 0.000000
LeftFoot -4.588889 7.076916 -35.709514
LeftToeBase 10.203856 -0.000000 -0.000000
RightUpLeg -6.311694 -15.032916 -18.510947
RightLeg -1.463351 -0.000000 0.000000
RightFoot -0.507273 -2.415531 16.120746
RightToeBase 1.154892 -0.000000 -0.000000
1189
root -0.359833 30.725977 -3.707017 12.128971 -2.061980 -1.886172
Spine -11.997421 6.636011 0.988132
Head -11.238265 -3.723413 5.736249
LeftShoulder -16.072530 17.450377 28.322814
LeftArm 15.317576 -25.743300 -31.766956
LeftForeArm 11.247047 -0.000000 12.664936
LeftHand -32.083511 -0.000000 -3.764810
LeftHandThumb1 -26.253704 0.000000 33.147579
RightShoulder -20.711045 15.096189 -41.950640
RightArm -14.778145 15.068234 28.932589
RightForeArm -26.225296 -0.000000 16.204344
RightHand -15.039282 0.000000 -12.326497
RightHandThumb1 -24.326973 -0.000000 -32.862282
LeftUpLeg -4.793423 19.278403 22.253877
LeftLeg -2.387349 -0.000000 0.000000
LeftFoot -4.580245 7.153297 -35.686867
LeftToeBase 10.190780 -0.000000 -0.000000
RightUpLeg -6.384837 -15.000407 -18.484395
RightLeg -1.449382 -0.000000 0.000000
RightFoot -0.482857 -2.455284 16.127637
RightToeBase 1.133746 -0.000000 -0.000000
1190
root -0.366295 30.729530 -3.731996 12.183817 -2.053579 -1.881528
Spine -11.956671 6.634010 1.128909
Head -11.321510 -3.670917 5.610733
LeftShoulder -16.069915 17.505658 28.197151
LeftArm 15.570205 -25.751042 -31.826175
LeftForeArm 11.288162 -0.000000 12.612513
LeftHand -32.093746 -0.000000 -3.586672
LeftHandThumb1 -26.253704 0.000000 33.147579
RightShoulder -20.646839 15.170123 -41.973083
RightArm -14.737913 15.017725 28.893985
RightForeArm -26.253353 -0.000000 16.262483
RightHand -14.973743 -0.000000 -12.487563
RightHandThumb1 -24.326973 -0.000000 -32.862282
LeftUpLeg -4.944426 19.286866 22.215383
LeftLeg -2.310754 -0.000000 0.000000
LeftFoot -4.559633 7.251336 -35.585129
LeftToeBase 10.082325 -0.000000 -0.000000
RightUpLeg -6.492309 -14.990821 -18.460486
RightLeg -1.430745 -0.000000 0.000000
RightFoot -0.434437 -2.523299 16.230966
RightToeBase 1.023233 -0.000000 -0.000000
1191
root -0.374069 30.733478 -3.756776 12.245103 -2.034418 -1.882334
Spine -11.929235 6.644166 1.273479
Head -11.354561 -3.677044 5.520883
LeftShoulder -16.002389 17.485747 28.150676
LeftArm 15.681746 -25.763028 -31.923177
LeftForeArm 11.435779 -0.000000 12.703104
LeftHand -32.057033 -0.000000 -3.749282
LeftHandThumb1 -26.253704 0.000000 33.147579
RightShoulder -20.601504 15.146915 -41.973241
RightArm -14.625739 14.969826 28.886820
RightForeArm -26.189530 -0.000000 16.336611
RightHand -14.945297 -0.000000 -12.512787
RightHandThumb1 -24.326973 -0.000000 -32.862282
LeftUpLeg -5.110115 19.313768 22.179717
LeftLeg -2.228146 -0.000000 0.000000
LeftFoot -4.549634 7.353341 -35.482295
LeftToeBase 10.066993 -0.000000 -0.000000
RightUpLeg -6.598752 -14.989615 -18.420841
RightLeg -1.415194 -0.000000 0.000000
RightFoot -0.452002 -2.583533 16.152613
RightToeBase 1.177748 -0.000000 -0.000000
1192
root -0.381435 30.737699 -3.780807 12.300023 -1.997570 -1.864538
Spine -11.888598 6.641361 1.412950
Head -11.423776 -3.688383 5.380520
LeftShoulder -15.993946 17.561499 28.035651
LeftArm 15.939236 -25.659692 -31.981103
LeftForeArm 11.389779 -0.000000 12.685946
LeftHand -32.083824 -0.000000 -3.502750
LeftHandThumb1 -26.253704 0.000000 33.147579
RightShoulder -20.565056 15.171769 -42.022388
RightArm -14.550879 14.956799 28.877420
RightForeArm -26.251365 -0.000000 16.397414
RightHand -14.811239 -0.000000 -12.605440
RightHandThumb1 -24.326973 -0.000000 -32.862282
LeftUpLeg -5.283243 19.340674 22.121172
LeftLeg -2.147562 -0.000000 0.000000
LeftFoot -4.517495 7.494490 -35.350848
LeftToeBase 9.967051 -0.000000 -0.000000
RightUpLeg -6.672526 -15.018433 -18.401248
RightLeg -1.438531 -0.000000 0.000000
RightFoot -0.402558 -2.667214 16.159011
RightToeBase 1.169105 -0.000000 -0.000000
